<svg width="512" height="512" viewBox="0 0 512 512" fill="none" xmlns="http://www.w3.org/2000/svg">
<rect width="512" height="512" rx="64" fill="black"/>
<path d="M256.697 410H207.282L232.972 307.333H179.883C174.752 307.331 169.693 306.13 165.11 303.826C160.527 301.522 156.547 298.179 153.487 294.064C150.428 289.949 148.375 285.176 147.491 280.126C146.608 275.077 146.919 269.891 148.399 264.983L197.738 102H319.343L280.808 204.667H332.484C338.363 204.67 344.132 206.266 349.176 209.283C354.221 212.3 358.353 216.627 361.133 221.803C363.913 226.979 365.237 232.811 364.965 238.678C364.693 244.546 362.834 250.23 359.587 255.127L256.697 410Z" fill="white"/>
</svg>
